<svg width="14" height="14" viewBox="0 0 14 14" fill="none" xmlns="http://www.w3.org/2000/svg">
<g clip-path="url(#clip0_217_556)">
<path d="M6.41699 2.74281C6.41687 2.66156 6.39269 2.58216 6.34749 2.51464C6.3023 2.44712 6.23811 2.3945 6.16304 2.36342C6.08797 2.33235 6.00537 2.3242 5.92567 2.34002C5.84598 2.35584 5.77275 2.39491 5.71524 2.45231L3.74124 4.42573C3.66506 4.50236 3.57443 4.56312 3.4746 4.60447C3.37476 4.64583 3.26772 4.66696 3.15966 4.66664H1.75033C1.59562 4.66664 1.44724 4.7281 1.33785 4.8375C1.22845 4.94689 1.16699 5.09527 1.16699 5.24998V8.74998C1.16699 8.90468 1.22845 9.05306 1.33785 9.16245C1.44724 9.27185 1.59562 9.33331 1.75033 9.33331H3.15966C3.26772 9.33299 3.37476 9.35412 3.4746 9.39548C3.57443 9.43683 3.66506 9.49759 3.74124 9.57423L5.71466 11.5482C5.77217 11.6059 5.8455 11.6451 5.92535 11.661C6.0052 11.6769 6.08798 11.6688 6.1632 11.6376C6.23842 11.6065 6.30269 11.5537 6.34787 11.4859C6.39305 11.4182 6.41711 11.3386 6.41699 11.2571V2.74281Z" stroke="#9CA3AF" stroke-width="1.16667" stroke-linecap="round" stroke-linejoin="round"/>
<path d="M9.33301 5.25C9.71166 5.75486 9.91634 6.36892 9.91634 7C9.91634 7.63108 9.71166 8.24514 9.33301 8.75" stroke="#9CA3AF" stroke-width="1.16667" stroke-linecap="round" stroke-linejoin="round"/>
<path d="M11.2959 10.7124C11.7834 10.2249 12.1701 9.64612 12.434 9.00916C12.6978 8.37219 12.8336 7.6895 12.8336 7.00005C12.8336 6.31061 12.6978 5.62791 12.434 4.99095C12.1701 4.35399 11.7834 3.77523 11.2959 3.28772" stroke="#9CA3AF" stroke-width="1.16667" stroke-linecap="round" stroke-linejoin="round"/>
</g>
<defs>
<clipPath id="clip0_217_556">
<rect width="14" height="14" fill="white"/>
</clipPath>
</defs>
</svg>
