<?xml version="1.0" standalone="no"?>
<!DOCTYPE svg PUBLIC "-//W3C//DTD SVG 20010904//EN"
 "http://www.w3.org/TR/2001/REC-SVG-20010904/DTD/svg10.dtd">
<svg version="1.0" xmlns="http://www.w3.org/2000/svg"
 width="512.000000pt" height="512.000000pt" viewBox="0 0 512.000000 512.000000"
 preserveAspectRatio="xMidYMid meet">
<g transform="translate(0.000000,512.000000) scale(0.100000,-0.100000)"
fill="#000000" stroke="none">
<path d="M1400 5104 c-45 -20 -77 -50 -101 -96 -16 -32 -19 -60 -19 -201 l0
-164 -277 -5 c-325 -6 -377 -15 -528 -88 -165 -80 -276 -189 -359 -350 -54
-104 -73 -170 -86 -291 -13 -130 -13 -3074 0 -3194 38 -326 260 -588 582 -687
73 -22 76 -22 878 -25 l805 -4 44 23 c25 13 59 40 75 61 29 36 31 45 31 117 0
72 -2 81 -31 117 -16 21 -50 48 -74 61 l-44 22 -762 0 c-736 0 -764 1 -827 20
-152 47 -256 174 -278 338 -6 50 -9 608 -7 1617 l3 1540 24 58 c45 114 148
210 260 244 46 15 99 17 311 18 l255 0 5 -96 c4 -83 9 -101 33 -137 15 -23 46
-52 70 -64 l42 -23 560 0 c308 0 572 3 587 8 40 11 98 66 119 112 13 28 19 64
19 123 l0 82 218 0 c119 0 248 -5 285 -10 139 -20 251 -102 310 -227 l32 -68
5 -405 c6 -451 4 -439 76 -498 91 -75 223 -57 291 41 l28 40 3 401 c2 338 0
414 -13 481 -61 298 -288 536 -590 616 -69 18 -117 22 -362 26 l-281 6 -4 172
c-3 167 -4 173 -30 212 -15 22 -44 51 -65 64 l-38 24 -570 2 c-493 2 -575 0
-605 -13z m910 -589 l0 -205 -315 0 -315 0 0 205 0 205 315 0 315 0 0 -205z"/>
<path d="M975 3203 c-144 -76 -155 -264 -20 -348 l48 -30 969 -3 c692 -2 981
1 1011 9 77 20 147 114 147 195 0 65 -53 147 -114 175 -39 18 -85 19 -1026 18
-879 0 -988 -2 -1015 -16z"/>
<path d="M3575 2564 c-255 -45 -492 -170 -680 -359 -156 -155 -259 -324 -323
-525 -44 -140 -57 -228 -56 -395 0 -165 15 -258 64 -407 134 -402 476 -722
890 -833 590 -157 1211 122 1487 669 148 294 177 652 77 967 -145 460 -535
801 -1011 884 -107 19 -340 18 -448 -1z m434 -404 c264 -64 485 -244 600 -492
267 -571 -127 -1228 -759 -1265 -255 -15 -496 79 -680 266 -393 398 -328 1047
137 1362 91 62 165 95 278 124 121 32 302 34 424 5z"/>
<path d="M3690 1814 c-55 -24 -99 -73 -115 -128 -18 -61 -21 -437 -4 -517 9
-40 21 -62 54 -94 58 -59 105 -68 321 -64 169 4 171 4 219 34 121 75 127 238
12 329 -34 27 -48 31 -125 36 l-87 5 -5 147 c-5 145 -5 147 -36 185 -58 74
-155 101 -234 67z"/>
<path d="M973 2336 c-150 -71 -150 -289 2 -357 37 -17 78 -19 615 -19 538 0
578 2 615 19 147 68 154 271 12 352 l-42 24 -575 3 -575 2 -52 -24z"/>
<path d="M975 1473 c-144 -76 -155 -264 -20 -348 l48 -30 481 0 481 0 42 24
c141 81 134 286 -12 352 -37 17 -75 19 -515 18 -414 0 -479 -2 -505 -16z"/>
</g>
</svg>
