<?xml version="1.0" standalone="no"?>
<!DOCTYPE svg PUBLIC "-//W3C//DTD SVG 20010904//EN"
 "http://www.w3.org/TR/2001/REC-SVG-20010904/DTD/svg10.dtd">
<svg version="1.0" xmlns="http://www.w3.org/2000/svg"
 width="512.000000pt" height="512.000000pt" viewBox="0 0 512.000000 512.000000"
 preserveAspectRatio="xMidYMid meet">
<g transform="translate(0.000000,512.000000) scale(0.100000,-0.100000)"
fill="#000000" stroke="none">
<path d="M2492 5109 c-45 -13 -108 -80 -121 -126 -6 -21 -11 -71 -11 -110 l0
-73 -733 0 c-698 0 -738 -1 -811 -20 -113 -29 -190 -73 -276 -160 -87 -86
-131 -163 -160 -276 -20 -76 -20 -118 -20 -1944 0 -1826 0 -1868 20 -1944 29
-114 73 -190 160 -276 87 -87 165 -132 276 -160 75 -20 117 -20 1744 -20 1627
0 1669 0 1744 20 113 29 190 73 276 160 87 86 131 163 160 276 20 76 20 118
20 1944 0 1826 0 1868 -20 1944 -29 113 -73 190 -160 277 -53 54 -96 86 -147
112 -133 65 -161 68 -679 65 l-460 -3 -41 -27 c-63 -41 -88 -90 -88 -169 0
-54 5 -72 27 -106 15 -22 44 -51 65 -64 l38 -24 466 -5 466 -5 40 -27 c22 -15
51 -44 64 -65 l24 -38 0 -1865 0 -1865 -24 -38 c-13 -21 -42 -50 -64 -65 l-41
-27 -1666 0 -1666 0 -41 27 c-22 15 -51 44 -64 65 l-24 38 0 1865 0 1865 24
38 c13 21 42 50 64 65 l41 27 732 3 732 2 4 -132 c3 -119 5 -137 27 -171 13
-21 42 -50 64 -65 34 -23 52 -27 107 -27 55 0 73 4 107 27 22 15 51 44 64 65
l24 38 0 426 0 425 -27 41 c-15 22 -43 50 -62 62 -41 26 -125 35 -174 20z"/>
<path d="M1891 3989 c-24 -7 -82 -57 -182 -156 l-148 -146 -51 47 c-59 52
-113 71 -180 62 -119 -16 -193 -134 -160 -256 10 -38 33 -66 148 -182 116
-115 144 -138 182 -148 55 -15 122 -7 164 19 17 11 131 120 252 243 242 243
253 260 240 357 -17 121 -142 197 -265 160z"/>
<path d="M2492 3589 c-47 -14 -109 -80 -123 -131 -23 -89 12 -182 88 -229 l38
-24 666 0 665 0 41 27 c62 41 88 90 88 168 0 78 -26 127 -88 168 l-41 27 -650
2 c-393 1 -664 -2 -684 -8z"/>
<path d="M1891 2789 c-24 -7 -82 -57 -182 -156 l-148 -146 -51 47 c-59 52
-113 71 -180 62 -119 -16 -193 -134 -160 -256 10 -38 33 -66 148 -182 116
-115 144 -138 182 -148 55 -15 122 -7 164 19 17 11 131 120 252 243 242 243
253 260 240 357 -17 121 -142 197 -265 160z"/>
<path d="M2492 2389 c-47 -14 -109 -80 -123 -131 -23 -89 12 -182 88 -229 l38
-24 666 0 665 0 41 27 c62 41 88 90 88 168 0 78 -26 127 -88 168 l-41 27 -650
2 c-393 1 -664 -2 -684 -8z"/>
<path d="M1891 1589 c-24 -7 -82 -57 -182 -156 l-148 -146 -51 47 c-59 52
-113 71 -180 62 -119 -16 -193 -134 -160 -256 10 -38 33 -66 148 -182 116
-115 144 -138 182 -148 55 -15 122 -7 164 19 17 11 131 120 252 243 242 243
253 260 240 357 -17 121 -142 197 -265 160z"/>
<path d="M2492 1189 c-47 -14 -109 -80 -123 -131 -23 -89 12 -182 88 -229 l38
-24 666 0 665 0 41 27 c62 41 88 90 88 168 0 78 -26 127 -88 168 l-41 27 -650
2 c-393 1 -664 -2 -684 -8z"/>
</g>
</svg>
